<!--
  Katip Celebi application logo
  Copyright (C) 2026 farukylmz0550

  This logo is part of Katip Celebi and is licensed under the
  GNU General Public License, version 3 or (at your option) any later
  version.  See the LICENSE file at the root of the repository, or
  <https://www.gnu.org/licenses/>.
--><svg xmlns="http://www.w3.org/2000/svg" xml:space="preserve" id="Layer_1" width="100%" height="500" x="0" y="0" viewBox="0 0 500 500"><path d="M236.296 171.968c-1.097-.313-2.194-.626-3.903-.964-.397-.083-.794-.167-1.747-.812-5.547-.774-11.094-1.548-17.138-2.852-2.5-.131-4.999-.263-8.293-.443-8.064-2.166-16.111-1.39-24.82-.162-2.462.446-4.926.891-8.103 1.332-5.099.304-10.198.608-15.844.737-1.161.37-2.322.74-4.106 1.148-.416.01-.832.021-1.496-.383-.2-.275-.47-.437-1.451-.49-.797.303-1.595.608-3.2.84-1.08.002-2.161.005-4.058.063-2.699.361-5.397.722-8.688 1.078-.484.29-.968.579-2.082.93-.205.05-.41.1-1.138.692-.43 2.192-.843 4.388-1.296 6.575-.993 4.804-5.619 5.407-9.242 8.237-1.22 2.354-3.244 4.625-3.494 7.077-.537 5.277-.164 10.647-.157 15.979.048 41.487.097 82.974.043 125.269-.094 5.15 3.786 4.126 6.717 4.133 36.732.087 73.463.103 110.659.692 3.849 1.422 7.698 2.843 12.27 4.657 3.428-.092 6.857-.185 10.775-.318 0 0 .492.011.665.362.274-.119.548-.237.831-.345 0 0-.01-.012.778.011 3.696-1.607 7.295-4.212 11.11-4.582 5.402-.524 8.309-3.548 11.74-7.264.766.912 1.53 1.823 2.878 2.797.193-.025.386-.05 1.107.15.459.287.917.574 1.95 1.396.595 3.52 3.37 2.515 5.495 2.517 28.825.03 57.65.02 86.474-.05 1.564-.004 3.126-.622 5.315-1.395.373-1.37 1.046-2.736 1.07-4.113.118-6.848.066-13.699.919-20.808.06-12.245.135-24.49.136-36.736 0-.617-.637-1.235-.914-2.64-.024-5.557-.025-11.115-.08-16.672-.032-3.22-.15-6.44-.084-10.497-.35-2.708-.7-5.416-.903-8.573 0 0 .132-.456.771-.727-.238-.968-.476-1.937-.474-3.625 3.732.044 2.883-3.241 4.445-5.429 3.441-4.891 6.883-9.782 10.916-15.062 1.902-4.5 4.043-8.916 5.651-13.518 2.636-7.544-.015-11.369-7.833-11.13-3.508.108-6.984 1.264-10.463 1.106-.9-.389-1.767-.919-2.706-1.14-2.722-.64-5.978-.438-8.077-1.914-2.287-1.608-3.511-4.727-5.25-8.03-.31-2.317-.62-4.635-1.438-7.6-6.8-.545-13.6-1.09-20.975-2.204-5.187-.445-10.373-.89-16.133-1.879-2.47-.135-4.938-.27-8.242-.437-1.666-.051-3.332-.103-5.614-.766-6.523-.061-13.045-.122-20.469-.261-3.714.424-7.43.85-11.658 1.422-.487.226-.973.452-1.623.338-.268.112-.536.223-1.67.368-3.103.577-6.206 1.154-9.917 1.865-.415.037-.829.073-1.73.07 0 0-.486.05-1.178.324-6.11 2.218-12.222 4.435-19.19 6.59-2.003.023-4.005.048-6.252-.366-.208-.293-.491-.45-1.431-.725-.785-.279-1.569-.558-2.697-1.416-1.587-.819-3.174-1.638-5.458-2.427m31.844 187.123v5.211l1.203.514 13.769-16.247-5.235-.392-3.944 5.551-2.598-6.44-1.108.291c-.6 3.598-1.201 7.195-2.087 11.512m-2.923 8.614 1.726-4.998-1.719-.395c-.21 1.735-.422 3.47-.007 5.393m8.372-23.187s-.111.067 0 0m1.01 2s-.124.076 0 0m-6.952 10.01-.209-.113s.036.238.21.113" opacity="0"/><path fill="#f0e9dc" d="M283.924 335.899c-.765-.911-1.53-1.822-2.678-3.206-3.347-.817-6.31-1.163-9.482-1.585-.207-.075-.645-.133-.726-.39-.167-.416-.252-.574-.148-1.085 3.329-1.143 6.447-2.036 9.612-2.698 4.425-.925 7.009-3.625 8.894-9.393l-35.42 11.031c.051.359-.084-.603-.12-1.821.16-.428.222-.6.497-.969.077-1.052-.058-1.906-.273-3.222-.032-5.169.016-9.876.317-14.908.077-6.762-.1-13.199-.358-20.1-.071-34.84-.06-69.218.264-103.718 1.87-.989 3.426-1.855 5.339-2.755 8.687-2.45 17.019-4.867 25.694-7.252 1.453-.264 2.56-.558 4.111-.805 5.539-.422 10.634-.89 16.113-1.287 1.674-.006 2.965-.081 4.655-.043 5.858.485 11.316.856 17.138 1.358 2.136.346 3.907.56 6.083.872 6.455.795 12.505 1.493 18.716 2.343.457.236.694.403.948.818.35.09.625.015 1.236-.115.78.043 1.222.14 1.68.598 2.988 2.719 5.958 5.076 9.012 7.827.026 1.466-.032 2.536-.415 3.674-1.088 2.022-1.852 3.977-2.976 5.976-2.05 1.295-3.74 2.546-5.43 3.798 1.262.72 2.525 1.438 4.06 2.428 2.094.425 3.915.578 5.777 1.041.087.512.134.715.129.893-.051-.025.059-.054-.22.042-.456.433-.634.769-.88 1.29-.22.422-.432.568-1.111.589-1.19.752-1.975 1.539-2.848 2.562-.435.592-.782.95-1.511 1.404-.72 1.882-1.057 3.667-1.368 5.587.027.135-.178.318-.524.357-1.626 1.058-2.905 2.077-4.312 3.196a15 15 0 0 1-1.196-1.608c-2.506 1.217-4.886 2.814-7.22 4.323.046-.088-.138-.159-.408-.144-2.025 1.749-3.78 3.484-5.82 5.298-.779.676-1.273 1.273-2.065 1.976-1.16 1.024-2.021 1.94-3.102 2.928-.494.26-.635.523-.926.996-1.094 1.085-1.905 2.03-2.952 3.086-.383.418-.53.726-.957 1.177-1.196 1.31-2.11 2.478-3.227 3.689-.473.189-.614.415-.933.909-3.044 7.48-5.783 14.772-8.521 22.065l-1.061-.057v-10.154l-1.037-.113c-1.079 1.616-2.157 3.231-3.522 5.06-3.812 7.424-8.28 14.347-10.608 21.927-2.495 8.121-2.977 16.861-4.454 25.71.51 1.506 1.136 2.633 2.179 4.51-2.307 3.999-5.151 8.93-8.257 14.075-1.971 4.147-3.68 8.08-5.388 12.015m-8.206-80.304 15.899-2.152c-2.31-.49-4.464-.947-6.485-2.107l7.717-4.246-.259-1.312c-1.159-.111-2.321-.342-3.477-.311-3.827.101-7.662.175-11.474.5-2.65.225-5.265.853-7.899 1.283-.995.163-1.999.273-2.999.407.084-1.03-.007-2.115.293-3.078.468-1.504 1.732-2.93 1.722-4.382-.03-4.344-.421-8.695-.887-13.02-.119-1.109-.804-2.765-1.628-3.063-1.803-.653-4.476-1.464-5.67-.62-1.715 1.211-3.41 3.842-3.408 5.864.017 12.799.572 25.596.787 38.396.049 2.951-.788 5.914-.78 8.87.021 8.728.21 17.456.45 26.18.065 2.344.547 4.676.88 7.355 5.666-3.992 6.457-6.622 4.498-11.414-.545-1.334-.132-3.096-.016-4.651.095-1.27 1.015-2.904.51-3.721-2.612-4.225-.183-5.938 3.172-7.57 1.399-.68 2.562-1.842 4.296-3.13-5.5-1.274-6.49-4.302-5.509-8.743.703-3.18.76-6.502 1.145-9.755.429-3.63.9-7.253 1.263-10.153 4.26-.262 7.376-.72 10.452-.536 1.647.1 3.226 1.307 4.086 2.256l-10.3 1.39-.018 1.122c.635.28 1.27.56 1.65 1.404l.193 2.082c.449-.053 1.289-.112 1.288-.16-.011-.868-.124-1.736.508-2.985m24.376-23.774 25.795-.593-.076-1.09c-8.93 0-17.86 0-27.668-.115l-21.34 2.155.143 1.727c7.411-.718 14.822-1.435 23.146-2.084m4.286-35.734c-.458.61-.916 1.218-2.162 1.98-1.067.008-2.135.015-3.353-.713l-8.417-.409.098 2.613c2.13-.181 4.262-.362 7.196-.3 8.06.255 16.12.618 24.182.708 2.724.03 5.455-.633 9.01-.989l9.661.812.003-2.987c-3.868.417-7.736.833-12.529 1.374-4.69-.11-9.378-.221-14.031-1.088l4.803-3.703c-2.052-1.199-3.947-2.306-4.924-3.62h17.68q-.03-.407-.063-.815h-41.255l.042 1.047c6.893 0 13.786 0 20.543.709-1.955 1.763-3.91 3.526-6.484 5.381m-33.458 7.625-3.71-3.462c.657-2.827 3.613-5.934-1.502-7.322-1.56-.424-2.913-1.634-4.476-2.026-1.812-.456-3.75-.407-6.047-.614 1.217 3.264 2.46 5.316 2.68 7.473.38 3.734-.2 7.571.242 11.291.365 3.063 1.63 6.019 2.637 9.51 3.099-4.18 5.493-7.383 7.856-10.61.83-1.134 1.581-2.326 2.32-4.24m69.027-23.75c-3.05-.988-6.073-2.066-9.157-2.932-2.326-.653-4.755-.937-7.092-1.56-3.413-.913-6.094-.074-8.485 2.293 13.316 7.275 26.595 11.363 42.246 7.14-5.331-4.331-10.93-4.788-17.512-4.942m-51.36 30.005-10.555 1.735.182.397 57.878-2.195c-16.48 0-31.545 0-47.506.063m-.474-30.387c2.935 1.14 5.793 2.797 8.83 3.255 2.37.357 6.038 1.62 6.93-2.515.967-4.49-3.344-3.199-5.26-4.084-5.416-2.502-9.347-1.272-10.5 3.344m36.58 41.27 1.611-.443-.117-.881H300.95l-.016 1.373c7.642 0 15.285 0 23.76-.048m28.421-23.22-1.567-4.51-6.401 2.523c1.442.891 2.807 1.97 4.354 2.603.91.372 2.11.033 3.614-.616m-54.647 65.628 3.254-.851-.27-1.268-16.62 1.546.182 1.61c4.205-.344 8.41-.688 13.454-1.037m-33.36-81.602c.214 1.413.285 4.001.667 4.048 2.335.286 5.337 1.227 6.281-3.233-2.264-.43-4.267-.81-6.949-.815m40.209 58.334-7.578.34.054 1.206h17.913c-3.072-.498-6.275-1.016-10.39-1.546m-32.58-44.973 4.547.882c-3.826-3.596-3.826-3.596-4.546-.882m.899 119.038 2.664 1.24.975-2.247c-1.077.157-2.155.314-3.64 1.007m85.478-127.415 1.456 2.099 1.269-2.24c-.843-.182-1.685-.365-2.725.141m-71.41 11.289-1.434.154.335 1.271c.408-.286.816-.572 1.099-1.425"/><path fill="#580a09" d="M385.748 247.95c.08 3.22.198 6.44.23 9.661.055 5.557.056 11.115.03 17.53-.038 13.496-.027 26.137-.017 38.778-.008 6.85.044 13.7-.074 20.548-.024 1.377-.697 2.742-1.874 4.312-30.531.195-60.26.176-89.987.209-2.826.003-5.578.228-4.998-4.257.337-1.076.631-1.828 1.236-2.572.484-.359.66-.727.803-1.122-.032-.027-.045.055.412-.015 4.806-.15 9.156-.23 13.962-.212 5.47.03 10.484-.04 15.963-.032 8.169.032 15.872-.01 23.982.045 1.791.035 3.176-.028 5.025-.016 7.5.017 14.537-.04 22.002.001 1.694.098 2.959.098 4.416.098 0-22.653 0-44.782.077-67.283 2.988-5.472 5.9-10.572 8.812-15.673"/><path fill="#f0edec" d="M120.083 186.879c3.231-2.215 7.857-2.818 8.85-7.622.453-2.187.866-4.383 1.584-6.405.383 2.833.478 5.496.48 8.525-.03 1.116.033 1.864-.023 3.069-.029 7.493.062 14.53.065 21.997-.027 2.467.035 4.505-.02 6.998-.046 5.828.025 11.2.004 17.031-.047 32.15-.001 63.84.02 95.801.297.35.62.428 1.317.578 1.122-.006 1.871-.085 3.024-.111 10.814-1.152 21.226-2.356 32.097-3.464 12.486.153 24.513.211 36.956.388 8.787 1.887 17.156 3.655 25.55 5.643.023.222.02.667-.448.668-6.49.247-12.51.493-18.994.813-6.493.028-12.522-.017-18.892-.287-4.775-.074-9.212.078-14.11.303-5.49.023-10.518-.029-15.889-.307-5.78-.073-11.216.08-17.114.308-5.489.024-10.515-.028-15.8-.288-1.356-.322-2.454-.435-3.663-.868-.063-.766-.014-1.212.289-1.982.376-1.308.601-2.291.602-3.275.025-43.832.036-87.665.01-131.497 0-1.284-.418-2.567-.72-4.28-1.777-.864-3.476-1.3-5.175-1.736"/><path fill="#9d612e" d="M364.366 205.16c.275-.056.487-.202.957-.754.515-.63.712-.943.909-1.256 0 0-.11.03.261-.046 2.794-1.61 5.216-3.145 7.966-4.773 1.473-1.137 2.618-2.181 4.09-3.347 3.365-1.41 6.404-2.7 9.443-3.99 3.49-.68 6.967-1.836 10.475-1.944 7.818-.239 10.469 3.586 7.833 11.13-1.608 4.602-3.75 9.018-6.318 13.696-1.745.789-3.146 1.15-3.844 2.053-3.474 4.494-6.763 9.13-10.376 13.857-.456.157-.652.174-1.113.234-.712.304-1.158.565-1.837.898-.232.072-.718.108-1.175.098-3.31 1.106-8.86-3.013-8.845 4.432-2.452.627-4.643 1-6.87 1.037-.672-4.426-3.596-2.433-5.712-2.813 2.014-2.346 3.989-4.363 6.262-6.543 5.502-4.698 10.707-9.233 15.912-13.768l-1.277-1.538c-3.166 2.094-6.332 4.188-9.921 6.26-3.44.494-6.912.557-5.712 5.315-.027.034-.056.114-.475-.05-4.87-.923-3.882 2.28-3.984 4.68-.018-.022.035-.003-.335-.013-2.059-1.341-3.748-2.672-5.414-4.36.946-3.125 1.869-5.892 2.79-8.66 0 0 .206-.182.421-.608.646-2.081 1.077-3.737 1.507-5.394.348-.357.695-.714 1.438-1.425 1.245-1.04 2.095-1.724 2.944-2.408"/><path fill="#530908" d="M125.11 327.991a15 15 0 0 0-.094 1.888c.05.55.09 1.023.033 1.068s-.16.15-.562.096c-1.096-1.665-2.384-3.272-2.394-4.887-.134-21.814-.118-43.628-.063-65.443.009-3.444.467-6.885.58-10.333.107-3.271.019-6.549.043-9.824.054-7.188 1.246-14.596-4.65-22.095 0 3.14-.022 4.916.003 6.692.325 23.106.826 46.213.919 69.32.05 12.448-.572 24.9-.966 37.347-.034 1.08-.626 2.14-1.162 3.205l-.61-.014q-.076-62.23-.147-124.461c-.007-5.332-.38-10.702.157-15.979.25-2.452 2.274-4.723 3.69-7.384 1.895.128 3.594.564 5.258 1.882-.084 13.84-.182 26.798-.174 39.755.021 33.056.09 66.112.14 99.167"/><path fill="#222b31" d="M131.09 181.01c-.095-2.662-.19-5.325-.312-8.428.179-.492.384-.542 1.069-.394 1.051-.242 1.623-.682 2.195-1.123 2.698-.36 5.396-.722 8.684-.837 1.819.085 3.048-.076 4.277-.237.797-.304 1.595-.609 2.836-.707.663.456.933.62 1.254.7.417-.01.833-.021 1.625.292 2.637 2.219 3.158 2.002 4.277-1.297 5.099-.304 10.198-.608 15.967-.642 4.132.405 7.597.516 11.059.678 6.352.296 12.708.922 19.053.82 3.653-.057 7.288-1.272 10.93-1.966 5.548.775 11.095 1.55 16.687 2.896-1.895 1.884-3.835 3.194-6.204 4.514-4.115-.448-7.802-.906-11.808-1.577-2.105-.39-3.891-.566-6.054-.929-9.459-.006-18.54.175-27.9.305-.812.106-1.344.263-2.332.4-8.108.89-15.76 1.802-23.652 2.662-.242-.05-.705.12-1.11.083-3.525.368-6.644.771-10.092 1.128-.733.113-1.136.273-1.917.381-1.134.05-1.89.154-2.904.208-.434-.068-.61-.085-.821-.437-.195-1.45-.352-2.567-.51-3.684l-1.466 2.22z"/><path fill="#650a07" d="M271.119 330.975s.438.058.75.478c1.904 1.196 3.496 1.972 6.002 3.193-5.544 2.39-10.207 4.228-14.7 6.416-1.911.931-3.465 2.595-5.181 3.926 0 0 .01.012-.243.005-.253-.008-.75.001-.75.001s-.493-.011-1.03-.274c-4.013-.112-7.487.039-10.96.19-3.85-1.423-7.7-2.844-11.94-4.808-.955-.76-1.517-.98-2.074-1.617.008-2.107.013-3.796.394-5.653 5.58-1.32 10.576-1.31 15.54 1.261 1.212.628 3.392-.612 5.452-1.01.758-.027 1.192-.035 1.882.216 4.75-.588 9.245-1.435 14.07-2.284.77-.01 1.211-.018 1.935-.025.474-.004.663-.01.853-.015"/><path fill="#1a2328" d="M353.025 176.92c-.179-.251-.416-.418-.845-.996.05-5.234-3.683-1.832-5.184-3.239 1.084-1.141 2.11-1.995 3.136-2.849 6.8.546 13.6 1.091 20.648 2.187.248.55.057.963-.251 1.025-.123 1.032.063 2.001.329 3.39.177 2.121.273 3.822.288 5.982-.203 4.462-.325 8.466-.777 12.535-1.596.775-2.86 1.486-4.356 2.104-.23-.092-.723-.12-.798-.556-.142-2.79-.21-5.147-.277-7.502a171 171 0 0 0 .18-4.047c.007-2.735.007-4.635.007-6.549l-9.125-1.2a23 23 0 0 0-1.899-.339c-.74-.015-.909.02-1.076.053"/><path fill="#232729" d="M224.915 175.27c1.94-1.31 3.881-2.621 6.055-4.224.63-.209 1.026-.125 1.727.371.273 2.546.033 4.829 3.697 4.56a179 179 0 0 0 5.704-1.004c.784.28 1.568.56 2.769 1.176.642.595.923.757 1.26.825 2.002-.024 4.004-.049 6.48.329 2.542 1.538 4.61 2.674 6.679 3.81-1.557.867-3.113 1.733-5.004 2.428-.908-.753-1.48-1.334-2.053-1.915-.078.792-.156 1.584-.64 2.374-1.492.005-2.576.012-3.902.005-.242-.014-.702.14-1.033-.01-2.77-1.302-5.208-2.455-7.71-4.02-4.718-1.843-9.373-3.274-14.029-4.705"/><path fill="#262d2e" d="M259.642 181.08c-2.425-1.103-4.493-2.239-6.606-3.745 6.066-2.588 12.177-4.805 18.725-7.01.701-.092.965-.195 1.228-.298.414-.036.828-.072 1.773.125 2.298 1.014 4.032 1.888 5.845 2.543 1.41.51 2.92.745 4.385 1.102-8.331 2.416-16.663 4.832-25.35 7.283"/><path fill="#f2eadd" d="M385.82 247.532c-2.984 5.519-5.896 10.619-9.094 16.093-.287.374-.707.377-1.106.37-2.47-.335-4.542-.662-6.642-1.242-.015-.422 0-.591.321-.901 2.437-3.38 4.566-6.621 6.966-10.02.832-1.271 1.393-2.381 2.231-3.698 1.96-3.167 3.641-6.128 5.58-9.1.426-.021.597-.032.768-.043.35 2.707.7 5.415.977 8.541"/><path fill="#f4dec1" d="M384.918 238.766c-.245.236-.416.247-1.25.256-7.25.777-13.838 1.556-20.426 2.334l-.793-2 3.51-2.536c2.19-.373 4.38-.745 7.203-1.41 3.398-1.656 6.165-3.02 8.932-4.384l.999-.076c.949-.35 1.385-.662 1.82-.973.197-.017.393-.034 1.166-.228 1.39-.385 2.203-.591 3.016-.798-.924 1.997-.075 5.282-3.969 5.89a21 21 0 0 0-.003 3.244s-.132.456-.205.68"/><path fill="#f7f5f3" d="M370.699 194.89c.122-4.004.244-8.008.651-12.67.415-1.206.544-1.756.673-2.305 1.687 2.46 2.91 5.58 5.198 7.187 2.099 1.476 5.355 1.274 8.077 1.915.94.22 1.806.75 2.7 1.558-3.045 1.71-6.084 2.999-9.84 4.387-2.965.042-5.212-.015-7.459-.071"/><path fill="#502524" d="M230.988 338.902c.562.22 1.124.44 1.847.923-36.572.23-73.303.214-110.035.127-2.931-.007-6.811 1.017-6.665-4.537.052-.404.458-.395.71-.022 2.468 1.45 4.682 3.456 6.905 3.466 35.745.164 71.492.075 107.238.043"/><path fill="#111110" d="M268.283 358.732c.743-3.958 1.343-7.555 1.944-11.153l1.108-.291 2.598 6.44 3.944-5.551 5.235.392-13.769 16.247-1.203-.514c0-1.737 0-3.474.143-5.57m1.154.76s.094-.05 0 0"/><path fill="#502524" d="M289.017 335.054c-.54 4.162 2.213 3.937 5.04 3.934 29.727-.033 59.455-.014 89.674.012-1.073.353-2.635.97-4.2.975-28.824.07-57.648.08-86.473.05-2.125-.002-4.9 1.003-5.62-3.026.443-.987 1.011-1.466 1.579-1.945"/><path fill="#273036" d="M349.845 169.552c-.74 1.138-1.765 1.992-3.305 3.137-4.845.573-9.176.855-13.508 1.136-1.772-.214-3.543-.428-5.714-1.108-.705-1.534-1.012-2.602-.89-3.684 2.81-.375 5.191-.738 7.571-1.1 5.186.445 10.372.89 15.846 1.619"/><path fill="#232729" d="M305.177 171.666c-5.096.468-10.191.935-15.68 1.035.234-1.466.859-2.563 1.753-3.716.4-.132.57-.18.65-.294.064-.094.032-.381.022-.382-1.314-.142-2.629-.265-3.949-.57l-.017-.54c3.715-.425 7.43-.85 11.616-.938.794.806 1.117 1.276 1.675 2.013a186 186 0 0 0 3.93 3.392"/><path fill="#4a1010" d="M258.384 345c1.322-1.343 2.876-3.007 4.787-3.938 4.493-2.188 9.156-4.026 14.7-6.416-2.506-1.221-4.098-1.997-5.794-3.117 2.858 0 5.822.347 8.847 1.12-2.727 4.232-5.634 7.256-11.035 7.78-3.816.37-7.415 2.975-11.505 4.57"/><path fill="#0f181f" d="M213.756 167.605c-3.394.958-7.029 2.173-10.682 2.23-6.345.102-12.7-.524-19.053-.82-3.462-.162-6.927-.273-10.702-.675 2.15-.714 4.614-1.16 7.71-1.175 4.403.564 8.18.891 11.945.779 4.351-.13 8.69-.648 13.036-.998 2.499.131 4.998.263 7.746.659"/><path fill="#273036" d="M290.98 169.04c-.624 1.098-1.249 2.195-1.924 3.615-1.16.615-2.267.91-3.72 1.173-1.809-.388-3.318-.624-4.729-1.133-1.813-.655-3.547-1.529-5.54-2.61 2.876-.878 5.979-1.455 9.756-2.046.675-.013 1.159-.015 1.159-.015.487-.225.973-.451 1.717-.75.257-.075.27.286.472.744 1.071.647 1.94.834 2.81 1.022"/><path fill="#232729" d="M325.999 169.046a83 83 0 0 1 .955 3.54c-5.423-.037-10.881-.408-16.525-1.262 2.417-1.437 5.02-2.39 7.941-3.381.816-.408 1.316-.777 1.815-1.145 1.666.051 3.332.103 5.416.513.411.818.405 1.277.398 1.735"/><path fill="#8e5325" d="M389.414 228.855a59 59 0 0 1-3.075.753c3.036-4.55 6.325-9.185 9.799-13.679.698-.904 2.1-1.264 3.548-1.86-3.07 4.909-6.512 9.8-10.272 14.786"/><path fill="#262d2e" d="M205.613 166.921c-3.948.375-8.288.892-12.64 1.023-3.763.112-7.54-.215-11.612-.625 7.743-1.811 15.79-2.588 24.252-.398"/><path fill="#f2eadd" d="M289.058 334.73c-.609.803-1.177 1.282-1.907 2.002-.62-.046-1.08-.333-1.835-1.08 1.73-3.825 3.756-7.187 6-10.775 1.005-1.171 1.793-2.118 2.768-2.791.073 1.667.265 3.183-.23 4.425-.652 1.64-1.843 3.064-2.802 4.581 0 0 .013-.082-.206.054a7.4 7.4 0 0 0-.862 1.004c-.295.753-.59 1.505-.926 2.58"/><path fill="#273036" d="M319.877 166.492c-.191.674-.69 1.043-1.98 1.452-6.156.048-11.52.056-16.885.063-.323-.47-.646-.94-.99-1.707a219 219 0 0 1 19.855.192"/><path fill="#f7f5f3" d="M386.414 313.79c-.433-12.512-.444-25.153-.437-38.256.358.154.995.772.995 1.39-.001 12.245-.076 24.49-.558 36.865"/><path fill="#837e74" d="M291.098 325.102c-2.026 3.363-4.053 6.725-6.046 10.436-.16.374-.353.399-.837.392 1.417-3.965 3.126-7.9 5.289-11.744.834.365 1.214.64 1.594.916"/><path fill="#4a1010" d="M245.367 345.105a71 71 0 0 1 10.354-.364c-3.135.375-6.564.468-10.354.364"/><path fill="#0f181f" d="M326.429 169.033c-.423-.445-.417-.904-.41-1.706 2.468-.208 4.937-.073 7.693.334-2.093.634-4.473.997-7.283 1.372"/><path fill="#262d2e" d="M236.007 175.982c-3.277.264-3.037-2.02-3.004-4.552 1.1-.088 2.196.225 3.605.873.008 1.45-.296 2.564-.6 3.679"/><path fill="#273036" d="M236.394 175.977c-.082-1.11.222-2.225.563-3.689 1.623.47 3.21 1.288 4.97 2.396-1.602.622-3.374.955-5.533 1.293"/><path fill="#111110" d="M264.904 367.61c-.102-1.828.11-3.563.32-5.298l1.719.395c-.575 1.666-1.15 3.332-2.039 4.904"/><path fill="#273036" d="M156.721 168.892c-.845 3.386-1.366 3.603-3.69 1.365 1.095-.712 2.256-1.082 3.69-1.365"/><path fill="#f0e9de" d="M371.997 179.494c-.103.97-.232 1.52-.565 2.268-.3-1.502-.397-3.203-.476-5.695a63 63 0 0 0-.119-3.081s.19-.413.198-.64c.317 2.09.626 4.409.962 7.148"/><path fill="#273036" d="M146.6 169.955c-.826.197-2.055.358-3.465.246.899-.277 1.98-.28 3.464-.246"/><path fill="#f2eadd" d="M385.442 237.95c-.372-.728-.425-1.592-.436-2.749.28.676.518 1.645.436 2.749"/><path fill="#0f181f" d="M133.746 171.063c-.276.443-.848.883-1.584 1.095.319-.52.803-.808 1.584-1.095"/><path fill="#273036" d="M272.746 170.008c-.02.122-.284.225-.639.179-.09-.15.395-.199.639-.18m-121.776-.23q-.297.19-.808-.49.322-.233.808.49"/><path fill="#111110" d="M273.533 344.551c-.055.034.056-.033 0 0"/><path fill="#4a1010" d="M257.082 345.17c-.086-.176.412-.185.66-.183-.025.12-.3.24-.66.183"/><path fill="#111110" d="M274.537 346.556c-.062.038.062-.038 0 0"/><path fill="#0f181f" d="M285.9 167.855c.082.17-.402.17-.644.168.027-.115.295-.226.644-.168"/><path fill="#111110" d="M267.56 356.59c-.086.063-.122-.175-.122-.175s.21.113.123.176"/><path fill="#262d2e" d="M246.004 176.755q-.32.225-.846-.479.35-.287.846.479"/><path fill="#f0e8da" d="M283.147 252.5c-1.61-.707-3.19-1.915-4.836-2.014-3.076-.185-6.192.274-10.452.536-.363 2.9-.834 6.524-1.263 10.153-.384 3.253-.442 6.574-1.145 9.755-.98 4.44.009 7.469 5.509 8.744-1.734 1.287-2.897 2.45-4.296 3.13-3.355 1.631-5.784 3.344-3.172 7.569.505.817-.415 2.45-.51 3.72-.116 1.556-.53 3.318.016 4.652 1.959 4.792 1.168 7.422-4.498 11.414-.333-2.68-.815-5.011-.88-7.354-.24-8.725-.429-17.453-.45-26.18-.008-2.957.829-5.92.78-8.871-.215-12.8-.77-25.597-.787-38.396-.003-2.022 1.693-4.653 3.408-5.865 1.194-.843 3.867-.032 5.67.62.824.3 1.51 1.955 1.628 3.063.466 4.326.857 8.677.887 13.02.01 1.453-1.254 2.879-1.722 4.383-.3.963-.209 2.048-.293 3.078 1-.134 2.004-.244 3-.407 2.633-.43 5.248-1.058 7.898-1.284 3.812-.324 7.647-.398 11.474-.5 1.156-.03 2.318.2 3.477.312l.259 1.312c-2.572 1.415-5.145 2.83-8.076 4.732-.781.55-1.203.614-1.626.678"/><path fill="#73421e" d="M295.506 304.92c1.36-8.47 1.843-17.21 4.338-25.331 2.329-7.58 6.796-14.503 10.728-21.603-.315 2.556-1.257 4.964-1.651 7.46-.165 1.042.643 3.11 1.34 3.27 3.593.825 7.016 1.83 10.645-1.245 2.553-2.163 4.241-6.599 8.817-5.178a1435 1435 0 0 1-12.672 17.322c-.34.32-.488.54-.812 1.019a69 69 0 0 0-2.268 3.352c.028.012 0-.042-.327.08-.454.728-.58 1.336-.674 1.94.033-.004.02-.068-.337-.136-1.136 1.335-1.916 2.738-2.662 4.137.034-.003.025-.07-.347-.106-.81 1.014-1.247 2.065-1.65 3.111.035-.005.028-.074-.298-.205-.796.64-1.266 1.408-1.706 2.185.029.007.006-.049-.293.045-1.052 1.333-1.804 2.571-2.666 4.158-1.797 3.209-3.026 6.702-7.505 5.725"/><path fill="#8e5325" d="M344.845 220.787s.184.071.513.49c1.37 1.823 2.39 3.244 3.456 4.63.774 1.006 1.607 1.966 2.361 2.955-.051.009-.028-.094-.017.276 2.48 2.602 4.36 4.818-.397 6.886-.49.17-.74.323-.992.476.407.163.813.325 1.234.762.029.457.042.64.034.79-.02-.033.056-.019-.178.094-.43.393-.627.672-.842.92-.018-.033.055-.018-.212-.038-.445-.023-.623-.026-1.023-.278-1.432.243-2.898.452-3.81 1.276-3.836 3.468-7.296 7.39-11.351 10.56-1.478 1.156-4.43 1.31-6.327.711-1.144-.36-1.857-2.989-2.21-4.711-.391-1.904-.15-3.937-.185-5.913.013-.306.154-.532 1.02-.706 1.435-1.301 2.276-2.574 3.116-3.847.146-.308.292-.616.995-.892 1.48.11 2.402.188 3.324.266l-.409-3.633c.008-.334.149-.596 1.012-.838 2.776.065 4.56-.147 3.031-3.054.494-.596.988-1.193 2.066-1.746 4.144-.048 5.962-1.796 5.79-5.436"/><path fill="#804b23" d="M324.593 240.86c.34 1.79.1 3.822.49 5.726.354 1.722 1.067 4.35 2.211 4.711 1.897.6 4.85.445 6.327-.71 4.055-3.17 7.515-7.093 11.352-10.561.91-.824 2.377-1.033 3.807-1.025.22.667.221.834.036 1.288-5.812 7.07-11.437 13.854-17.326 20.714-.72.382-1.174.687-1.628.993-4.715-1.124-6.403 3.312-8.956 5.475-3.63 3.075-7.052 2.07-10.645 1.245-.697-.16-1.505-2.228-1.34-3.27.394-2.496 1.336-4.904 1.937-7.672.959-1.94 2.037-3.556 3.116-5.172l1.037.113v10.154l1.06.057c2.74-7.293 5.478-14.585 8.522-22.065"/><path fill="#262d2e" d="m251.995 184.002.234-2.376c.573.58 1.145 1.162 1.74 2.037.01 34.672-.001 69.05-.007 104.352.064 7.271.123 13.617.183 19.963-.049 4.707-.097 9.414-.15 14.948.046 1.569.096 2.312.146 3.054-.063.172-.125.344-.568.77-.758.25-1.134.243-1.524-.231-.027-47.817-.04-95.167-.054-142.517"/><path fill="#f0e8da" d="M270.946 204.086a25.4 25.4 0 0 1-2.344 3.866c-2.363 3.227-4.757 6.43-7.856 10.61-1.007-3.491-2.272-6.447-2.637-9.51-.443-3.72.139-7.557-.242-11.291-.22-2.157-1.463-4.209-2.68-7.473 2.296.207 4.235.158 6.047.614 1.563.392 2.915 1.602 4.476 2.026 5.115 1.388 2.16 4.495 1.501 7.322 1.215 1.133 2.463 2.298 3.735 3.836"/><path fill="#232729" d="M252.063 326.986c.376.007.752.013 1.411.02.418.964.553 1.926.503 1.567l35.419-11.031c-1.885 5.768-4.469 8.468-8.894 9.393-3.165.662-6.283 1.555-9.78 2.828-.56.691-.689.938-.74 1.225-.44.009-.88.017-1.922-.252-5.087.582-9.571 1.443-14.055 2.304-.434.008-.868.016-2.033 0-5.147-1.046-9.562-2.066-13.88-3.457 1.508-.841 2.917-1.311 4.627-1.735 1.223.453 2.145.86 3.252 1.562.735.047 1.285-.201 1.897-.821.144-1.113.226-1.856.634-2.517.82 1.617 1.314 3.152 2.292 6.19z"/><path fill="#f0e8da" d="M340.386 179.977c6.145.138 11.744.595 17.075 4.925-15.65 4.224-28.93.136-42.246-7.139 2.391-2.367 5.072-3.206 8.485-2.294 2.337.624 4.766.908 7.092 1.561 3.084.866 6.108 1.944 9.594 2.947"/><path fill="#7c5e40" d="M295.39 305.299c4.595.598 5.824-2.895 7.984-6.033 1.183-1.625 1.892-2.974 2.602-4.323 0 0 .023.056.325.218.77-.632 1.235-1.428 1.701-2.223 0 0 .007.07.3-.01.76-1.05 1.227-2.02 1.694-2.99 0 0 .009.066.316.021 1.097-1.37 1.887-2.696 2.678-4.021 0 0 .013.064.35-.008.435-.71.533-1.348.631-1.986 0 0 .028.054.31.246 1.097-.27 1.912-.734 3.036-.923-.737 1.949-1.797 3.614-2.828 5.298-3.158 5.161-6.304 10.33-9.47 15.467-.015-.029.047-.01-.31-.005-1.72 2.227-3.085 4.448-4.625 6.917-.87 1.494-1.565 2.74-2.478 4.136-.376.645-.534 1.14-.912 1.77-.332.453-.445.769-.792 1.287-.7 1.104-1.165 2.008-1.772 3.079-.142.167-.232.597-.232.597-.789.946-1.577 1.893-2.583 3.064-.597-.05-.977-.326-1.55-.904 2.653-5.234 5.497-10.165 7.804-14.164-1.043-1.877-1.67-3.004-2.18-4.51"/><path fill="#47443e" d="M289.036 209.934c15.513-.031 30.578-.031 47.058-.031l-57.878 2.195-.182-.397c3.518-.579 7.036-1.157 11.002-1.767"/><path fill="#f0e8da" d="M287.892 179.3c1.375-4.337 5.306-5.567 10.721-3.065 1.917.885 6.228-.406 5.26 4.084-.891 4.135-4.56 2.872-6.928 2.515-3.038-.458-5.896-2.115-9.053-3.534"/><path fill="#5b574f" d="M311 189.997h-20.679l-.042-1.047h41.255q.03.407.063.815c-5.893 0-11.786 0-18.47.022-1.235.084-1.681.147-2.127.21"/><path fill="#f0e9de" d="M370.369 194.955c2.577-.008 4.824.05 7.462.128-.754 1.067-1.9 2.111-3.563 2.986-2.432.199-4.344.567-6.578.985-.757.704-1.192 1.359-1.639 2.248-.01.233-.048.7-.048.7-1.821-.154-3.642-.307-5.734-.982-.271-.52-.269-1.02.016-1.168.76-1.049 1.235-1.95 1.711-3.186v-1.665c.765-1.956 1.529-3.911 2.617-5.933.392 2.288.46 4.644.56 7.671.378.585.724.499 1.07.412 1.265-.71 2.53-1.42 4.126-2.196"/><path fill="#837e74" d="M299.016 198.09c1.067-.008 2.135-.015 3.869-.057 1.2-.107 1.735-.18 2.652-.194 3.077.04 5.77.023 8.464.005 4.69.11 9.379.221 14.732.405.898.298 1.135.52 1.374.738-2.728.346-5.459 1.009-8.183.979-8.062-.09-16.121-.453-24.368-1.024.363-.495.911-.674 1.46-.853"/><path fill="#f0e8da" d="M314.02 197.466c-2.712.396-5.406.413-8.513-.076-.444-.802-.476-1.098-.508-1.394 1.955-1.764 3.91-3.527 5.933-5.644.514-.418.96-.48 1.736-.462 2.226 1.19 4.12 2.296 6.173 3.495-1.635 1.26-3.22 2.482-4.821 4.081"/><path fill="#837e74" d="M324.278 220.874c-8.06.024-15.702.024-23.344.024l.016-1.373h25.238l.117.881c-.537.148-1.073.296-2.027.468"/><path fill="#faeacd" d="M357.71 215.035c-.575 2.728-1.498 5.495-2.572 8.958-1.432 2.056-2.711 3.415-3.991 4.775 0 0-.023.103-.038-.33.397-4.1.808-7.767 1.22-11.435l1.07 1.228c1.407-1.119 2.686-2.138 4.312-3.196"/><path fill="#864f25" d="M352.203 216.623c-.286 4.048-.697 7.716-1.042 11.807-.74-.557-1.573-1.517-2.347-2.522-1.066-1.387-2.087-2.808-3.502-4.544 2.005-1.927 4.385-3.524 6.89-4.741"/><path fill="#5b574f" d="m299.18 231.752-22.232 2.153-.143-1.727c7.113-.718 14.227-1.436 21.812-1.693.502.73.533.998.563 1.267"/><path fill="#232729" d="M333.436 173.923c3.928-.38 8.26-.66 13.047-.946 2.014 1.115 5.747-2.287 5.537 2.795-6.079-.356-12.13-1.054-18.584-1.85"/><path fill="#f0e8da" d="M352.898 197.945c-1.287.334-2.487.673-3.397.301-1.547-.633-2.912-1.712-4.354-2.603l6.401-2.522c.523 1.503 1.045 3.006 1.35 4.824"/><path fill="#5b574f" d="M298.049 263.26c-4.625.347-8.83.691-13.035 1.035l-.183-1.61 16.622-1.546.269 1.268c-1.084.283-2.169.567-3.673.853m-15.277-10.639c.798-.185 1.22-.249 1.935-.447 2.446.322 4.6.779 6.91 1.27-5.47.74-10.685 1.446-16.52 2.313-.784.22-.948.279-1.112.337l-1.906-.84.018-1.123c3.433-.463 6.866-.926 10.675-1.51"/><path fill="#f0e9de" d="M356.017 177.567c2.857.016 5.73.394 9.108.838 0 1.914 0 3.814-.09 6.154-3.06-1.916-6.031-4.273-9.018-6.992"/><path fill="#0f181f" d="M301.247 168.274c5.13-.274 10.494-.282 16.332-.29-2.13.95-4.733 1.903-7.55 3.225-1.504.446-2.795.521-4.47.527-1.613-1.111-2.844-2.153-4.312-3.462"/><path fill="#f0e8da" d="M265.447 181.469c2.342.192 4.345.572 6.61 1.002-.945 4.46-3.947 3.52-6.282 3.233-.382-.047-.453-2.635-.328-4.235"/><path fill="#47443e" d="M299.637 231.786c-.487-.303-.518-.572-.582-1.245 8.898-.404 17.828-.404 26.758-.404l.076 1.091c-8.599.198-17.197.395-26.252.558"/><path fill="#f0edec" d="M330.52 198.982c-.652-.214-.889-.435-1.324-.795 3.666-.552 7.534-.968 11.402-1.385l-.003 2.987c-3.22-.27-6.44-.541-10.074-.807"/><path fill="#837e74" d="M305.771 239.995a539 539 0 0 1 9.934 1.54h-17.913l-.054-1.205c2.526-.114 5.052-.227 8.033-.335"/><path fill="#f0edec" d="M298.94 197.722c-.473.546-1.021.725-1.785 1.098-2.347.376-4.478.557-6.61.738l-.097-2.613c2.806.137 5.611.273 8.492.777"/><path fill="#f0e8da" d="M361.637 195.044c.36.4.36.845.02 1.685-.779 1.354-1.218 2.312-1.657 3.27l-.004.75c-1.264-.47-2.527-1.188-3.79-1.907 1.69-1.252 3.38-2.503 5.43-3.798"/><path fill="#eee8db" d="M254.397 307.653c-.312-6.02-.37-12.367-.352-19.174.253 5.975.429 12.412.352 19.174"/><path fill="#f4dec1" d="M368.01 199.005c1.914-.369 3.826-.737 5.93-.844-2.23 1.798-4.653 3.333-7.396 4.968-.366-.103-.413-.306-.5-.818-.041-.31-.004-.776.318-1.076a32 32 0 0 0 1.649-2.23"/><path fill="#864f25" d="M344.575 220.802c.441 3.625-1.377 5.373-5.236 5.342 1.457-1.858 3.211-3.593 5.236-5.342"/><path fill="#f0e8da" d="M272.54 194.717c.916-2.414.916-2.414 4.742 1.182-1.515-.294-3.03-.588-4.743-1.182m1.299 119.07c1.281-.425 2.359-.582 3.436-.739l-.975 2.247c-.888-.413-1.776-.827-2.46-1.508m85.372-127.492c.941-.161 1.783.022 2.626.205l-1.269 2.239c-.485-.7-.97-1.4-1.357-2.444"/><path fill="#804b23" d="M332.662 232c.42 1.072.556 2.283.692 3.494-.922-.078-1.844-.156-3.087-.376.49-1.088 1.301-2.033 2.395-3.118m-3.909 4.263c-.558 1.13-1.399 2.403-2.631 3.66.52-1.182 1.435-2.35 2.63-3.66"/><path fill="#864f25" d="M336.69 228.076c1.827 2.8.043 3.012-2.513 2.876.492-.936 1.353-1.852 2.513-2.876"/><path fill="#f0e8da" d="M273.857 256.376c.292-.34.456-.399.879-.429.35.897.463 1.765.474 2.634 0 .047-.84.106-1.288.16-.064-.695-.128-1.389-.065-2.365"/><path fill="#f4dec1" d="M359.603 209.09c-.05 1.56-.48 3.216-1.153 5.163.096-1.495.433-3.28 1.153-5.162"/><path fill="#f0edec" d="M287.764 198.213c-.345.57-.753.855-1.161 1.141l-.335-1.27c.478-.052.956-.104 1.496.129"/><path fill="#f4dec1" d="M363.962 205.125c-.445.72-1.295 1.403-2.453 2.207.478-.668 1.263-1.455 2.453-2.207"/><path fill="#f0edec" d="M304.69 196.042c.34.25.373.546.435 1.29-.505.522-1.04.594-1.846.625.185-.652.643-1.26 1.41-1.915"/><path fill="#eee8db" d="M254.353 325.783c-.262-.545-.312-1.288-.277-2.396.22.49.354 1.344.277 2.396"/><path fill="#f4dec1" d="M365.953 203.246c.082.217-.115.53-.562.974-.072-.205.106-.541.562-.974"/><path fill="#4a1010" d="M270.266 330.99c-.233-.289-.105-.536.267-.874.253.028.338.186.505.601-.109.263-.298.27-.772.273"/><path fill="#f0e9de" d="M353.1 177.084c.092-.199.26-.233.663-.164-.038.179-.313.254-.663.164"/><path fill="#f7f5f3" d="M294.084 322.086c-.186-.273-.096-.703.437-.9 2.496-.712 4.46-1.229 6.156-1.473-.752 1.403-1.238 2.532-1.924 4.13 4.49-.366 8.363-.682 12.698-.932 4.827.03 9.194-.006 14.014.037a16038 16038 0 0 0 45.171 3.606v-56.393l-.998-.394c-1.517 2.415-3.034 4.83-4.88 7.195-.505-1.424-.68-2.799-.782-4.51 1.725-3.374 3.378-6.41 5.031-9.446 2.071.327 4.143.654 6.606 1.457.388 20.06.34 39.644.423 59.227.014 3.277-.544 5.9-4.023 7.02-7.035.057-14.071.114-21.829-.117-2.206-.148-3.69-.007-5.174.133-7.704.042-15.407.084-23.914-.178-5.896-.148-10.989.008-16.082.164-4.35.08-8.699.16-13.505.31.502-1.447 1.693-2.872 2.345-4.51.495-1.243.303-2.759.23-4.426"/><path fill="#f2e4d9" d="M372.443 330.808c3.05-1.218 3.607-3.841 3.593-7.118-.084-19.583-.035-39.167-.024-59.22.007-.468.427-.47.637-.473.21 22.127.21 44.256.21 66.91-1.457 0-2.722 0-4.416-.099m-66.972.002c4.636-.254 9.73-.41 15.16-.337-4.676.298-9.69.366-15.16.337m39.945.013c1.078-.237 2.562-.378 4.303-.304-1.127.276-2.512.339-4.303.304m-55.122 1.337c-.096-.3.118-.588.583-.987.076.259-.099.627-.583.986"/><path fill="#0f181f" d="M130.997 181.377c1.037-2.024 1.98-3.681 2.924-5.339l1.466-2.219c.158 1.117.315 2.234.286 4.044-.271 1.012-.428 1.332-.428 1.652-.008 32.687-.016 65.374.052 98.06.003 1.158.774 2.314 1.192 3.906-.048 2.742-.1 5.048-.433 7.574-.085 3.516.109 6.814.375 10.496.028 1.686-.016 2.987-.346 4.5-.06 3.51.165 6.805.452 10.467-.008 1.353-.076 2.34-.37 3.41-.217.792-.209 1.501-.194 2.59-.326 2.31-.659 4.24-.992 6.17-.75.078-1.5.157-2.732-.012-.674-.459-.906-.602-1.182-.675-.045-31.69-.09-63.38.337-95.64.743-5.823 1.042-11.074 1.214-16.33.01-.331-.966-.696-1.483-1.045-.061-2.038-.123-4.076.284-6.656.645-7.602.83-14.663.94-21.725.002-.199-.825-.41-1.265-.615a21 21 0 0 1-.097-2.613"/><path fill="#273036" d="M204.02 323.545c-12.026-.058-24.053-.116-36.599-.657-1.123-2.155-1.726-3.827-1.95-5.622 5.315-.376 10.264-.965 15.188-.805 8.123.265 16.23 1.014 24.335 1.917-.33 1.96-.652 3.564-.974 5.167"/><path fill="#1a2328" d="M204.437 323.664c-.095-1.722.226-3.326 1.001-5.283 2.734-.155 5.066-.194 7.287.284 7.779 1.67 15.52 3.52 23.398 5.432.123.132.482.103.703.372 2.012 1.29 3.802 2.312 5.592 3.334-1.41.469-2.818.939-4.7 1.795-1.221.373-1.97.358-2.799-.001-1.705-.4-3.33-.455-4.957-.51-8.369-1.768-16.738-3.536-25.525-5.423m-39.345-6.275a156 156 0 0 1 1.87 5.404c-10.352 1.591-20.764 2.795-31.578 3.947-.07-1.983.263-3.913.831-6.227.236-.385.712-.474 1.086-.395 1.138.07 1.903.061 2.78.174.388.011.663-.1 1.345-.303a4029 4029 0 0 1 23.666-2.6"/><path fill="#4a1010" d="M234.998 329.941c.75.015 1.499.03 2.622.03 4.79 1.003 9.205 2.023 14.027 3.086-1.328.424-3.508 1.664-4.72 1.036-4.964-2.57-9.96-2.581-15.924-1.43-2.223-.22-3.687-.635-5.149-.628-33.107.154-66.214.363-99.32.485-.547.002-1.097-.928-1.645-1.423 0 0 .103-.105.551-.143 1.485-.102 2.522-.165 3.558-.229 5.027.052 10.053.104 16.002.172 6.28-.047 11.639-.11 16.997-.173 5.028.051 10.056.103 16.003.172 5.277-.045 9.635-.108 13.993-.17 6.03.045 12.059.09 19.012.154 7.257.017 13.59.015 20.273.007 1.473-.32 2.596-.633 3.72-.946"/><path fill="#f8d8d7" d="M125.366 327.667c-.305-32.731-.374-65.787-.395-98.843-.008-12.957.09-25.915.253-39.326.336.83.753 2.113.754 3.397.026 43.832.015 87.665-.01 131.497 0 .984-.226 1.967-.602 3.275"/><path fill="#222b31" d="M130.974 184.446c.56-.25 1.387-.04 1.384.159-.108 7.062-.294 14.123-.85 21.296-.472-6.925-.563-13.962-.534-21.455m.044 28.995c.634-.106 1.61.259 1.6.59-.172 5.256-.47 10.507-1.122 15.87-.452-5.26-.523-10.632-.478-16.46"/><path fill="#f8d8d7" d="M230.929 330.893c-6.333.002-12.667.004-19.46-.087 5.56-.338 11.58-.584 18.302-.76 1.055.21 1.208.47 1.158.847m-69.275-.396c-5.015.29-10.373.353-16.192.325 4.976-.245 10.412-.398 16.192-.325m29.999.003c-4.018.288-8.376.35-13.19.322 3.978-.243 8.415-.395 13.19-.321"/><path fill="#232729" d="M231.278 330.887c-.3-.371-.452-.63-1.038-.842-.232-.071-.23-.516-.254-.738 1.602-.165 3.228-.11 4.933.29-1.045.657-2.168.97-3.641 1.29"/><path fill="#f8d8d7" d="M128.74 330.517c-.778.272-1.815.335-3.242.392-.391-.007-.433-.48-.372-.71 1.16-.117 2.258-.004 3.614.318"/><path fill="#1a2328" d="M131.042 326.273c.3-.199.533-.056.834.331-.212.097-.536.02-.834-.33"/><path fill="#864f25" d="M365.922 236.485c-1.133 1.18-2.303 2.026-3.473 2.871l.793 2c6.588-.778 13.175-1.557 20.17-2.323a43.3 43.3 0 0 1-5.12 8.835c-1.09 1.019-1.699 2.098-2.638 3.164-.77-.018-1.21-.021-2.052-.03-2.33.691-4.26 1.386-6.189 2.08-2.697.972-5.333 2.223-8.11 2.832-2.376.521-4.913.308-8.017.449-.997-2.552-2.13-5.457-3.16-8.68 4.085-4.773 8.065-9.228 12.045-13.682 2.155.05 5.08-1.942 5.751 2.484"/><path fill="#faeacd" d="M360.21 233.672c-4.019 4.783-7.999 9.238-12.375 14.18-2.592 3.573-4.789 6.658-7.268 9.9-1.321 1.215-2.36 2.273-3.85 3.306-1.954-.06-3.458-.096-4.963-.13 5.625-6.785 11.25-13.568 17.323-20.684.63-.62.812-.908.995-1.196 0 0-.073-.015.2-.069.456-.35.639-.648.821-.946 0 0-.077-.014.259-.117 3.456-3.366 6.577-6.629 9.698-9.891 0 0-.053-.019.247-.111 1.1-.701 1.9-1.31 3.03-1.87.838.448 1.343.848 1.848 1.248-1.976 2.017-3.951 4.034-5.965 6.38m-23.015 23.59-.446.331c.206-.023.412-.046.446-.33"/><path fill="#f4dec1" d="M366.472 227.129c-.802-.237-1.307-.637-2.024-1.362.183-.968.577-1.611.97-2.255 0 0 .03-.08.356-.182 2.162-1.81 3.999-3.518 5.835-5.226l9.498-6.28 1.277 1.537c-5.205 4.535-10.41 9.07-15.912 13.768"/><path fill="#864f25" d="M360.68 228.015c-2.75 3.272-5.872 6.535-9.307 9.934-.328-.047-.341-.23-.366-.932-.011-.52-.007-1.01-.007-1.01 4.518-2.05 2.637-4.267.158-6.869 1.269-1.73 2.548-3.09 3.957-4.788 1.817.993 3.506 2.324 5.565 3.665"/><path fill="#8e5325" d="M381.637 231.016c-2.31 1.374-5.077 2.738-8.214 4.14-.646-7.153 4.904-3.034 8.214-4.14m-10.451-12.933c-1.413 1.73-3.25 3.437-5.386 5.214-1.526-4.657 1.946-4.72 5.386-5.214m-6.187 5.265c.026.808-.368 1.45-.882 2.37-.92.886-1.72 1.495-2.803 2.218-.197-2.308-1.185-5.511 3.685-4.588m19.65 6.672c-.171.268-.607.58-1.324.858.166-.293.612-.554 1.324-.858"/><path fill="#5e0704" d="M124.487 331.043c.95.549 1.5 1.48 2.046 1.477 33.107-.122 66.214-.33 99.321-.485 1.462-.007 2.926.409 4.773.796.379 1.858.374 3.547.366 5.654-35.751.449-71.498.538-107.243.374-2.223-.01-4.437-2.015-6.702-3.46.285-1.438.877-2.5.911-3.579.394-12.447 1.016-24.899.966-37.347-.093-23.107-.594-46.214-.919-69.32-.025-1.776-.003-3.551-.003-6.692 5.896 7.499 4.704 14.907 4.65 22.095-.024 3.275.064 6.553-.043 9.824-.113 3.448-.571 6.889-.58 10.333-.055 21.815-.071 43.63.063 65.443.01 1.615 1.298 3.222 2.394 4.887"/><path fill="#eee8db" d="M207.001 172.96c1.787.176 3.573.352 5.74 1.102 5.008 3.03 9.635 5.485 14.263 8.318 1.047 2.13 2.234 3.818 3.108 5.653 1.478 3.105 3.48 6.203 3.938 9.488.571 4.1.907 8.87-.672 12.465-1.883 4.285-3.637 7.635.114 11.53.243.252-.24 1.179-.349 1.798-.39 2.226-.764 4.455-1.494 6.64-2.275-.88-4.163-2.317-6.132-2.44-4.716-.293-9.493.369-14.202.03-7.687-.55-15.27-1.43-23.027.015-3.539.659-7.417-.499-11.141-.832l.048-2.355c5.355-.262 10.709-.716 16.064-.735 6.009-.021 12.171 1.925 18.223-1.727 6.338.733 12.26 1.42 18.18 2.109l.198-1.472c-4.287-.636-8.574-1.272-12.986-2.241-4.63-1.332-9.114-3.056-13.645-3.188-12.316-.36-24.654-.137-36.977.122-1.435.03-2.835 1.728-4.62 2.75-2.126.317-3.88.536-5.745.41-3.324-.027-7.997-.939-9.492.832-5.47 6.48-3.428 14.817-3.005 22.42.087 1.559 4.681 2.863 7.187 4.302.109.063.116.303.21.578-.212.34-.372.958-.732 1.113-6.18 2.666-8.412 6.438-8.02 12.7.485 7.778.69 15.575.931 23.366.042 1.347-.346 2.708-.535 4.062l-1.905.295c-.508-1.724-1.42-3.44-1.455-5.174-.159-7.826.033-15.66-.16-23.484-.038-1.486-1.25-2.942-2.008-4.87-.025-5.487.04-10.513.494-15.643.793-1.104 1.516-2.094 1.551-3.108.41-11.885.802-23.772 1.024-35.661.151-8.112.028-16.228.028-24.343.403-.16.806-.321 1.571-.023 1.128 2.403 1.894 4.348 2.66 6.292l.727-1.754c5.112-1.1 10.201-2.318 15.34-3.265 4.765-.877 9.615-1.31 14.349-2.313.92-.195 1.477-2.105 2.201-3.225.533-.156 1.065-.313 1.955-.079 1.318.947 2.28 1.986 3.237 1.98a669 669 0 0 0 23.087-.56c.65-.026 1.25-1.224 1.874-1.878m-.793 27.404.966-.084c-.409-.079-.817-.158-1.5-.958-8.565-.31-17.13-.62-26.628-1.043l-19.407.979.025 1.602c6.747-.352 13.494-.704 21.175-.884 8.388.002 16.775.004 25.369.388m-22.777-11.258-12.71-1.12q-.037.517-.077 1.035 29.59 1.544 59.179 3.092c-4.756-1.565-9.605-2.588-14.481-2.745-10.359-.334-20.732-.218-31.911-.262m-22.78 1.969 6.39-.341c-.029-.07-.057-.14-.085-.2-6.449-2.791-12.593-.45-18.743 1.634 3.852-.352 7.705-.704 12.437-1.093m62.78-8.317-5.158.168-.106 1.861c1.276.57 2.505 1.346 3.841 1.638.977.214 2.093-.21 3.147-.35-.366-.992-.733-1.983-1.723-3.317"/><path fill="#4e5355" d="M137.007 241c-.064 5.027-.129 10.053-.188 16.002-.108 8.629-.222 16.336-.336 24.043-.412-1.156-1.183-2.312-1.186-3.47-.068-32.686-.06-65.373-.052-98.06 0-.32.157-.64.464-1.319.4-.341.575-.324.936.208.245 21.209.304 41.903.362 62.596"/><path fill="#f0e9de" d="M137.397 240.897c-.448-20.59-.507-41.284-.493-62.443.829-.568 1.584-.672 2.718-.722a375 375 0 0 1 .35 24.396c-.222 11.89-.613 23.776-1.024 35.661-.035 1.014-.758 2.004-1.55 3.108m38.995-67.419c-.27 1.139-.826 3.05-1.746 3.244-4.734 1.002-9.584 1.436-14.348 2.313-5.14.947-10.23 2.165-15.34 3.265l-.728 1.754c-.766-1.944-1.532-3.89-2.33-6.245 3.086-.815 6.205-1.218 9.83-1.466.507.156.939.182.939.182l.312-.334c7.652-.911 15.303-1.822 23.41-2.713m50.61 8.524c-4.626-2.455-9.253-4.91-13.942-7.726 3.625.097 7.312.555 11.427 1.003 5.084 1.422 9.74 2.853 14.196 4.834-.36.663-.522.776-1.128.888-3.814.334-7.183.668-10.553 1.001m-20.377-9.229c-.247.841-.849 2.04-1.498 2.066-7.691.313-15.39.512-23.087.56-.957.005-1.92-1.034-2.958-1.93 9.002-.52 18.084-.702 27.543-.696"/><path fill="#eee8db" d="M152.74 176.14c.242.05-.07.385-.07.385s-.432-.026-.533-.146.362-.29.604-.24"/><path fill="#4a1010" d="M254.26 333.299c4.229-1.12 8.713-1.98 13.47-2.562-4.224 1.127-8.718 1.974-13.47 2.562"/><path fill="#273036" d="M370.529 173.048c.354.701.4 1.464.347 2.599-.284-.598-.47-1.567-.347-2.599"/><path fill="#47443e" d="M366.013 197.059c-.116.179-.462.265-.765.116.042-.237.536-.208.765-.116"/><path fill="#0f181f" d="M252.05 326.519c-.31 1.807-.631 3.146-1.256 5.743-.978-3.038-1.472-4.573-2.368-6.517-.466-.85-.53-1.291-.504-2 .03-.442-.032-.62.007-.81.1-.015.237.132.547.054.088-1.052-.134-2.026-.432-3.422-.025-2.134.026-3.845.455-5.676.72-.642 1.353-1.162 1.36-1.69.086-6.902.147-13.806.023-20.706-.015-.847-1.136-1.673-1.821-2.97-.028-8.146.02-15.83.43-23.62 1.865-2.872 2.887-5.59-.436-8.327-.024-1.795.03-3.18.46-4.687.734-.813 1.399-1.504 1.403-2.199.07-11.228.103-22.458-.019-33.686-.011-1.012-1.145-2.013-1.833-3.412-.025-1.456.027-2.519.454-3.702.636-5.366.926-10.611 1.087-15.86.01-.333-.969-.695-1.566-1.438-.152-1.461-.226-2.527-.209-3.96.049-1.116.007-1.867.056-2.859.075-.413.058-.584.04-.756 1.085-.007 2.17-.014 3.66-.02.42 47.353.434 94.703.461 142.52"/><path fill="#eee8db" d="M247.796 185.017c.043.75.085 1.5-.301 2.606-1.784-.304-3.139-.963-4.494-1.622-.001-.001-.003-.002-.05-.318-.682-.772-1.316-1.228-2.091-1.961-1.048-1.091-1.954-1.906-2.86-2.72.161-.113.323-.226.746-.477 2.7 1.015 5.138 2.168 8.003 3.651.575.571.782.741 1.047.84"/><path fill="#cfceca" d="M247.888 184.775c-.357.142-.564-.028-.808-.45-.095-.18.365-.334.607-.32.259.186.276.357.201.77"/><path fill="#73421e" d="M337.168 261.084c1.039-1.059 2.078-2.117 3.431-2.928-.469 1.77-1.226 3.306-2.046 4.807-.597 1.095-1.694 2.095-1.824 3.223-.193 1.665 10.795 6.625 12.501 6.06 1.8-.598 3.76-.712 6.09-1.113.222-2.972 7.955-8.909 13.619-9.196l.053.056c-.015.169-.03.338-.014.76a122 122 0 0 1-5.356 9.74c-3.826 2.755-7.226 5.132-11.032 7.506-7.828 1.78-15.25 3.563-22.672 5.346l.295 1.612c2.408.108 4.817.193 7.223.329 4.025.227 8.048.488 11.824 1.013-1.413 1.273-2.647 2.198-3.726 3.28-2.064 2.07-3.679 4.88-6.118 6.234-8.999 4.99-18.259 9.512-27.784 14.18-1.012.246-1.66.519-2.603.73-.876.083-1.458.226-2.285.316-.406-.004-.566.046-1.076.139-1.44.26-2.53.477-3.718.422.08-1.011.258-1.75.686-2.73.976-2.444 1.703-4.646 2.43-6.849 0 0-.062-.018.28.2 1.673-1.47 3.068-3.107 4.32-4.847 9.184-12.752 18.338-25.524 27.502-38.29"/><path fill="#73421e" d="M374.003 251.007c.44.004.88.007 1.65.26.33.25.342.724.342.724-2.13 3.24-4.26 6.48-6.696 9.86-.307.142-.343.105-.326-.292 1.687-3.781 3.359-7.167 5.03-10.552"/><path fill="#7d4820" d="M376.265 251.831c-.27.16-.282-.313-.281-.55.61-1.315 1.219-2.394 2.032-3.207-.358 1.377-.919 2.487-1.75 3.757"/><path d="M269.484 359.467c.047-.025-.047.025 0 0"/><path fill="#0f181f" d="M291.25 168.985c-1.138-.133-2.008-.32-3.075-.787 1.118-.154 2.433-.03 3.747.11.01.002.042.29-.022.383-.08.113-.25.162-.65.294"/><path fill="#efd6b8" d="M336.717 261.058c-8.713 12.792-17.867 25.564-27.05 38.316-1.253 1.74-2.648 3.378-4.305 4.875 2.823-5.354 5.97-10.523 9.127-15.684 1.03-1.684 2.091-3.35 2.824-5.294-.313-.272-.319-.267-.025-.005 1.655-1.434 3.016-3.128 4.488-5.044-.28-.319-.67-.416-1.308-.346-.929.876-1.61 1.585-2.525 2.109-.403-.29-.573-.395-.743-.5 4.128-5.631 8.256-11.263 12.523-17.192.593-.603 1.048-.908 1.767-1.29 1.769-.04 3.273-.005 5.227.055m-24.084 24.812c-.434 1.393-1.224 2.719-2.355 4.092.44-1.354 1.219-2.757 2.355-4.092m-6.956 9.167c-.41 1.255-1.12 2.604-2.193 3.881.39-1.31 1.141-2.548 2.193-3.88"/><path fill="#efd6b8" d="M317.004 282.996c-.811.46-1.626.923-2.75 1.183.382-1.24 1.075-2.276 2.213-3.304.604.162.763.317.779.739-.18.642-.216 1.016-.252 1.39zm-7.38 6.904c-.095 1.007-.563 1.977-1.357 3.032.11-.966.548-2.017 1.357-3.031m-1.948 2.906c-.14.926-.606 1.722-1.404 2.347.138-.939.608-1.708 1.404-2.347m5.968-8.742c.229.517.13 1.155-.337 1.869-.243-.532-.117-1.14.337-1.869m3.04-3.423c-.121-.488.028-.707.367-1.027.319-.025.489.08.817.6.02.72-.193.958-.48 1.13a34 34 0 0 1-.704-.703"/><path fill="#804b23" d="M350.76 236.024c.24-.017.236.473.232.719-.41.082-.816-.08-1.223-.243a4.5 4.5 0 0 1 .992-.476"/><path fill="#864f25" d="M350.86 238.146c.05.185-.132.482-.57.866-.058-.194.139-.473.57-.866m-1.055.882c.084.308-.098.596-.541.93-.263-.123-.263-.29-.262-.708.18-.248.358-.245.803-.222"/><path fill="#f0e9de" d="M248.122 314.01a1319 1319 0 0 0-.169 5.937c.061 1.575.137 2.347.213 3.12 0 0-.137-.147-.381-.028-.289.227-.402.374-.366.438.107.196.271.36.414.535.063.442.127.883.267 1.652-.006 1.069-.088 1.812-.57 2.943-.847.429-1.296.468-1.744.507a50 50 0 0 0-3.067-1.266c-2.091-1.067-3.881-2.089-5.519-3.544 4.835-1.469 9.288-2.631 7.961-9.177-.104-.514 1.667-1.409 2.659-1.872.162.421.232.588.302.755"/><path fill="#cfceca" d="M245.97 329.41c.264-.335.713-.374 1.498-.432-.212.23-.762.48-1.497.432"/><path fill="#f2eadd" d="M306.99 313.092c.581-.143 1.163-.286 2.41-.326 1.31-.178 1.953-.46 2.596-.743 9.161-4.698 18.421-9.22 27.42-14.21 2.44-1.354 4.054-4.165 6.118-6.235 1.079-1.08 2.313-2.006 4.078-3.298 1.529-2.957 2.457-5.617 3.384-8.278 3.4-2.377 6.8-4.754 10.554-7.172.528 1.333.703 2.708 1.3 4.462.312.823.2 1.266-.256 1.751-3.795 2.705-2.33 4.883.43 7.404.098 11.487.098 22.514.098 33.58-6.21-.582-11.655-1.093-17.464-1.73-1.131-.134-1.898-.14-3.052-.265-8.783-.584-17.178-1.05-25.908-1.615-1.458.121-2.58.343-4.057.553-1.454.406-2.553.824-4.048 1.254-3.48.414-6.565.815-9.65 1.217a208 208 0 0 1-6.28 1.578c.074-.874.539-1.778 1.428-3.042.632-.628.764-.929.823-1.262.158-.495.316-.99 1.08-1.618 1.755-.497 2.905-.861 4.055-1.225 1.09-.217 2.18-.434 3.717-.558.707-.012.965-.117 1.224-.222"/><path fill="#efd6b8" d="M304.71 304.027c-.37 2.197-1.098 4.4-2.605 6.736-1.136.067-1.49 0-1.846-.067 1.365-2.221 2.73-4.442 4.45-6.67"/><path fill="#f2e4d9" d="M300.084 310.944c.53-.18.885-.114 1.772.06.352.845.174 1.585.094 2.596-1.051.636-2.201 1-3.739 1.347.308-1.263 1.003-2.509 1.873-4.003"/><path fill="#f7f5f3" d="M296.694 316.85c.161.198.03.499-.367.926-.078-.157.035-.473.367-.925"/><path fill="#f0e9dc" d="M360.285 199.852c.154-.811.593-1.77 1.371-2.79-.136.84-.612 1.741-1.371 2.79m7.405-.798c-.122.594-.564 1.238-1.318 1.948.126-.59.561-1.244 1.318-1.948"/><path fill="#1a2328" d="m348.022 318.423 17.1 1.604c0-11.066 0-22.093-.013-34.01a1698 1698 0 0 0-.17-7.017 6.6 6.6 0 0 0 .241-1.659c1.424-2.745 2.94-5.16 4.458-7.574l.998.394v56.393c-14.973-1.18-29.844-2.354-45.185-3.963-.92-4.43-3.399-4.569-6.46-3.898l.042-2.175c8.395.465 16.79.93 25.63 1.816 1.417.31 2.388.2 3.359.09m-17.774.79 3.485 1.808.623-1.57c-1.136-.13-2.272-.259-4.108-.237"/><path fill="#273036" d="M318.985 319.004c3.067-.982 5.545-.843 6.011 3.508a75.6 75.6 0 0 1-13.539.013c-.46-1.74-.464-3.026-.469-4.313 1.1-.418 2.199-.836 3.725-.887 1.709.803 2.99 1.241 4.272 1.679"/><path fill="#232729" d="M310.593 318.224c.4 1.275.405 2.562.403 4.235-3.88.702-7.753 1.018-12.243 1.384.686-1.598 1.172-2.727 1.924-4.13 3.35-.674 6.435-1.075 9.916-1.49"/><path fill="#f0e9de" d="M136.489 281.48c.108-8.142.222-15.849.42-24.019.752 1.007 1.964 2.463 2.001 3.949.194 7.824.002 15.658.161 23.484.035 1.734.947 3.45 1.455 5.174l1.905-.295c.19-1.354.577-2.715.535-4.062-.24-7.791-.446-15.588-.932-23.366-.39-6.262 1.841-10.034 8.021-12.7.36-.155.52-.774.733-1.113-.095-.275-.102-.515-.21-.578-2.507-1.44-7.1-2.743-7.188-4.302-.423-7.603-2.465-15.94 3.005-22.42 1.495-1.77 6.168-.86 9.08-.741-1.717.717-3.13.996-4.545 1.276l.211 1.249 15.984-1.414-5.124-1.71c1.416-.924 2.816-2.622 4.25-2.652 12.324-.259 24.662-.482 36.978-.122 4.531.132 9.015 1.856 13.245 3.222-1.988.754-3.7 1.14-5.41 1.525-5.634 3.697-11.796 1.75-17.805 1.772-5.355.019-10.71.473-16.064.735l-.048 2.355c3.724.333 7.602 1.491 11.141.832 7.756-1.445 15.34-.566 23.027-.014 4.709.338 9.486-.324 14.202-.03 1.97.122 3.857 1.559 6.133 2.441.35.044.353.045.352.462 0 1.805.002 3.194-.004 4.924-.671 1.448-1.335 2.554-2.313 3.711-.808 1.227-1.3 2.402-1.838 3.681h-6.612l-.15 1.542c1.441.268 2.941.37 4.304.857 1.145.41 2.728 1.048 3.066 1.97.813 2.222 1.01 4.67 1.04 6.97-5.506-.509-10.595-.959-15.685-1.409 4.312 1.754 8.685 2.492 13.088 2.916.933.09 1.977-.965 3.327-1.45.733.978 1.645 2.102 1.395 2.823-1.675 4.833-3.598 9.58-5.56 14.667.658.309 1.8.844 3.188 1.582.405 1.027.564 1.852.399 2.776-1.605 2.299-1.605 2.299 2.397 4.384.682 2.213 1.32 4.062 1.53 5.9-9.143-1.088-17.859-2.163-26.562-3.618.605-1.808 1.198-3.237 2.048-5.285h-14.754l-.206 1.87c1.576.257 3.22.316 4.707.827 1.444.497 2.728 1.46 3.621 2.237a5782 5782 0 0 1-31.411-.2c-2.591.13-4.704.298-6.818.466l.23 1.775c2.95.487 6.04 2.383 8.977-1.263 2.173.387 3.94.899 5.708.907 7.943.037 15.887-.069 24.087.17 1.017.394 1.776.495 2.943.541 9.889 1.333 19.37 2.721 28.853 4.545.333 3.214.665 5.994.642 8.606-5.122-1.02-9.89-1.873-15.056-2.83-8.089-.886-15.78-1.666-23.473-2.446l-.136 1.592c7.988.862 15.975 1.724 24.302 2.71 3.8.845 7.26 1.566 10.71 2.642-2.26 1.075-4.506 1.794-6.753 2.514l-.356 1.482c2.365.665 4.828 1.106 7.061 2.077 1.463.635 2.592 2.037 3.87 3.096-1.439.774-2.885 2.218-4.318 2.205-6.125-.06-12.246-.544-18.368-.883-5.352-.296-10.7-.642-16.056-.863-.645-.026-1.318.595-1.978.916l-.13 1.532c2.165.369 4.324.773 6.496 1.093 1.375.203 3.136-.217 4.092.494 5.903 4.386 12.877 2.814 19.36 3.528 3.768.416 9.5 3.29 11.094 7.267-7.755-1.782-15.496-3.63-23.275-5.301-2.221-.478-4.553-.44-7.278-.641-8.558-.549-16.665-1.298-24.788-1.563-4.924-.16-9.873.43-15.189.805-8.13.959-15.883 1.795-24.313 2.664-.848.102-1.019.17-1.19.24-.763.009-1.528.019-2.704-.43-.565-.938-.718-1.416-.87-1.895.068-.987.136-1.974.271-3.782-.053-3.956-.174-7.09-.294-10.224.045-1.301.089-2.602.228-4.733-.024-3.976-.143-7.124-.262-10.27.052-2.307.105-4.613.153-7.355m83.349-18.201-4.363-1.142-.152 2.494c1.56-.21 3.118-.421 4.679.199l2.235 4.113 4.877-4.6-1.02-1.427c-2.032.36-4.063.722-6.256.363m3.365 12.995 1.946.505.257-.776c-.813-.335-1.627-.67-2.98-1.54l-18.678-2.082-.136 1.435c6.418.647 12.835 1.294 19.59 2.458m-48.18-44.81c8.622.026 17.244.052 26.72.409 7.737.74 15.474 1.481 23.262 2.099l.051.19s-.177-.11-.247-.905l-24.775-3.26c-8.668.037-17.336.074-26.905-.052q-11.359 1.073-22.718 2.143l.094 1.687c7.865-.795 15.73-1.591 24.519-2.312m-17.647 43.644c6.933-.54 13.865-1.08 21.811-1.365h20.836v-6.43c-4.644-2.148-5.907-1.58-7.15 3.292-4.634.38-9.226.756-14.757 1.205-7.237.443-14.474.885-22.483 1.262l-3.108 1.755.51 1.191c1.23-.21 2.461-.42 4.341-.91m10.226-14.035-4.442 1.715c.367.651.893 1.906 1.077 1.858 1.622-.425 3.185-1.082 5.696-1.798 12 .018 23.998.036 36.477.608l4.182-.624-.326-1.676c-1.583 0-3.167 0-5.623.11-12.04-.034-24.082-.069-37.04-.193m19.803-2.074c7.199-.002 7.199-.002 9-3.39h-21.104c3.383 5.277 7.749 2.598 12.104 3.39m20.321-14.59-10.159.583c10.464 5.186 14.906 5.094 17.022.883-2.037-.39-4.075-.78-6.863-1.467m-46.917 14.563 1.476-1.374c-1.32-.408-2.706-1.296-3.946-1.125-2.603.36-5.064 1.532-6.929-1.652-.37-.631-2.788-.867-3.479-.312-.976.785-1.587 2.47-1.61 3.783-.009.55 1.904 1.637 2.92 1.61 3.6-.1 7.189-.574 11.568-.93m13.482-10.973 4.382-1.296-.403-1.648c-6.248.25-12.591-.839-18.75.647q.044 1.149.086 2.299c4.611 0 9.222 0 14.685-.002m3.583-28.96q-2.049.262-4.098.527l.07.868h26.536l.01-1.412c-7.2 0-14.401 0-22.518.016m14.86 33.857 3.688-2.283h-16.825l-.038 1.81c4.112.187 8.224.375 13.174.473m-43.565 42.29-1.584 1.237.292.835 13.592-1.582-.091-1.272c-3.807.236-7.614.472-12.209.783m21.014-43.251-8.522-.999-.24 2.348c2.499.238 4.997.61 7.497.623.656.003 1.317-1.105 1.265-1.972m14.926-6.674 7.89 2.217.355-2.43c-2.514 0-5.028 0-8.245.213m20.272 6.196.283 2.427 5-1.012-.363-1.712c-1.412 0-2.825 0-4.92.297m-52.924 34.408-5.5-3.271c.282 5.314 2.873 4.484 5.5 3.271m2.687-2.648c.085 4.549 2.478 2.279 4.085 2.333l.463-1.552c-1.28-.315-2.562-.63-4.548-.78m64.29-41.533-5.025.195.535 2.375c1.533-.624 3.067-1.247 4.49-2.57m-72.206 22.854 3.925 1.512.398-2.219c-1.385 0-2.77 0-4.323.707m6.006-10.998 3.92 1.511.564-1.3c-.54-.511-1.032-1.369-1.632-1.452-.854-.12-1.788.328-2.852 1.241m2.391 8.612-.93 1.73 3.512.998.383-1.154c-.77-.497-1.54-.994-2.965-1.574m33.996-26.5 2.497.906.238-1.319c-.758 0-1.516 0-2.735.414m-41.225 41.18.69-1.61-1.732-.21c.16.56.319 1.119 1.042 1.82m71.116-28.56 1.645.325.017-1.178c-.551.094-1.102.187-1.662.853m-8.985-6.991-.76-.801c-.111.105-.323.296-.317.303.236.282.493.547 1.077.498m-44.96-15.468-1.1-.013c-.002.152-.014.436-.004.437.365.028.731.03 1.103-.424m-1.577 67.77.215-.036s-.299-.06-.215.036"/><path fill="#4e5355" d="M136.085 304.052c.405 2.921.526 6.055.518 9.644a69 69 0 0 1-.518-9.644m-.029-14.997c.399 2.927.518 6.075.47 9.666a65 65 0 0 1-.47-9.666m.111 28.873c.378.396.53.874.722 1.732.038.379-.438.468-.68.473-.25-.704-.259-1.413-.042-2.205"/><path fill="#f0e8db" d="M236.123 324.097c-1.717-4.109-7.45-6.982-11.217-7.398-6.483-.714-13.457.858-19.36-3.528-.956-.71-2.717-.291-4.092-.494-2.172-.32-4.331-.724-6.496-1.093l.13-1.532c.66-.32 1.333-.942 1.978-.916 5.355.22 10.704.567 16.056.863 6.122.34 12.243.824 18.368.883 1.433.013 2.879-1.431 4.319-2.205-1.279-1.059-2.408-2.46-3.87-3.096-2.234-.97-4.697-1.412-7.062-2.077l.356-1.482c2.247-.72 4.494-1.44 7.065-2.55 1.359-.271 2.392-.15 3.599.37.488 2.17.53 4.05 1.18 5.69 1.162 2.931 2.689 5.718 4.063 8.565l1.719-.584c.376-1.394 1.02-2.775 1.086-4.183.422-9.02.644-18.05 1.072-27.07.58-12.21-3.558-24.064-1.36-36.598 1.711-9.752.299-20.045.37-30.096.021-3.112.644-6.235.49-9.328-.335-6.754-.99-13.492-1.516-20.236 1.355.658 2.71 1.317 4.403 1.987.411 1.078.485 2.144.539 4.064.053 6.223.127 11.591.201 16.96a303 303 0 0 0-.173 4.042c.043 13.555.105 26.256.167 38.957a708 708 0 0 0-.179 5.004c.045 3.23.108 5.613.171 7.996-.048 7.683-.097 15.367-.164 23.974-.09 8.62-.165 16.317-.239 24.014-.9.718-2.67 1.613-2.566 2.127 1.327 6.546-3.126 7.708-8.182 8.908-.374.165-.733.194-.856.062"/><path fill="#4e5355" d="M140.081 320.292c.057-.191.228-.26.668-.27-.005.17-.28.281-.668.27"/><path fill="#7d4820" d="M373.602 251.003c-1.27 3.39-2.942 6.775-4.647 10.538-5.68.683-13.413 6.62-13.634 9.592-2.332.401-4.291.515-6.09 1.112-1.707.566-12.695-4.394-12.502-6.059.13-1.128 1.227-2.128 1.824-3.223a41 41 0 0 0 2.329-4.964c2.164-3.49 4.361-6.574 6.848-9.829 1.425 2.736 2.56 5.64 3.556 8.193 3.104-.14 5.64.072 8.017-.449 2.777-.61 5.413-1.86 8.11-2.831 1.93-.695 3.86-1.39 6.19-2.08"/><path fill="#efd6b8" d="M337.281 257.393c-.12.154-.326.177-.532.2.148-.11.297-.22.532-.2"/><path fill="#f0e7d7" d="M243 186c.526 6.746 1.182 13.484 1.517 20.238.154 3.093-.469 6.216-.49 9.328-.071 10.051 1.341 20.344-.37 30.096-2.198 12.534 1.94 24.388 1.36 36.598-.428 9.02-.65 18.05-1.072 27.07-.066 1.408-.71 2.79-1.086 4.183l-1.719.584c-1.374-2.847-2.901-5.634-4.063-8.565-.65-1.64-.692-3.52-1.122-5.93.033-.94.084-1.26.039-1.595-.332-2.78-.664-5.559-.87-8.983-.291-1.347-.707-2.049-1.123-2.75-.637-1.85-1.275-3.699-1.85-6.194-.686-1.831-1.434-3.016-2.181-4.202a32 32 0 0 0-.714-3.06c.646-2.47 1.246-4.565 2.47-6.192 3.48-4.633 3.791-10.047.825-15.32-.77-1.37-.858-3.143-1.175-4.748-.496-2.511-.921-5.037-1.377-7.557.664-1.105 1.328-2.211 2.35-3.705 3.88-2.561 3.31-4.149-.346-5.295l-.003-.003c.38-2.229.753-4.458 1.143-6.684.109-.62.592-1.546.35-1.799-3.752-3.894-1.998-7.244-.115-11.529 1.58-3.595 1.243-8.366.672-12.465-.458-3.285-2.46-6.383-3.938-9.488-.874-1.835-2.06-3.522-3.108-5.653 3.368-.711 6.737-1.045 10.551-1.38 1.35.816 2.257 1.63 3.353 3.038.823 1.049 1.456 1.505 2.09 1.96z"/><path fill="#5b574f" d="M183.837 189.094c10.773.056 21.146-.06 31.505.274 4.876.157 9.725 1.18 14.48 2.745l-59.178-3.092.078-1.034c4.236.373 8.472.746 13.115 1.107"/><path fill="#837e74" d="M206.002 199.982c-8.388-.002-16.775-.004-25.626-.445-.441-.674-.42-.91-.398-1.144 8.565.31 17.13.62 25.849 1.276.153.347.175.313.175.313"/><path fill="#5b574f" d="M160.21 191.094c-4.292.37-8.145.722-11.997 1.074 6.15-2.084 12.294-4.425 18.742-1.638q.043.097.086.204c-2.13.113-4.26.227-6.83.36"/><path fill="#47443e" d="M211.482 221.91c1.293-.43 3.004-.816 5.116-1.236 4.688.601 8.975 1.237 13.262 1.873l-.198 1.472c-5.92-.688-11.842-1.376-18.18-2.109m-31.97-23.574c.444.292.423.527.397 1.115-6.751.705-13.498 1.057-20.245 1.409l-.025-1.602c6.469-.327 12.938-.653 19.873-.922"/><path fill="#5b574f" d="M161.631 219.99c2.132.49 3.894 1.078 5.494 1.612l-15.984 1.414-.21-1.25c1.413-.279 2.827-.558 4.653-.929 2.168-.31 3.922-.53 6.047-.847"/><path fill="#f0e7d7" d="M223.743 182.93c.678 1.162 1.045 2.153 1.41 3.145-1.053.14-2.17.564-3.146.35-1.336-.292-2.565-1.069-3.84-1.638l.105-1.86c1.72-.057 3.44-.113 5.471.003"/><path fill="#837e74" d="M205.964 200.03c.393.092.801.171 1.21.25-.322.028-.644.056-1.07-.107-.102-.191-.124-.157-.14-.144"/><path fill="#232729" d="M248.515 251.891c-.44-12.58-.501-25.28-.468-38.443.707.545 1.84 1.546 1.852 2.558.122 11.228.09 22.458.02 33.686-.005.695-.67 1.386-1.404 2.2m-.695 61.363c-.019-7.952.055-15.649.223-23.807.703.374 1.824 1.2 1.84 2.047.123 6.9.062 13.804-.025 20.706-.006.528-.639 1.048-1.359 1.69-.447-.048-.517-.215-.68-.636m.701-104.363c-.45-5.248-.524-10.616-.5-16.444.618-.111 1.598.251 1.587.583-.161 5.25-.45 10.495-1.087 15.861m-.03 56.012c-.423-2.275-.486-4.658-.454-7.478 3.342 1.888 2.32 4.607.455 7.478m-.015 58.085c-.386-.695-.462-1.467-.447-2.62.313.594.535 1.568.447 2.62"/><path fill="#cfceca" d="M247.922 323.746c-.232.09-.396-.073-.503-.269-.036-.064.077-.21.266-.424.205.073.266.25.237.693"/><path fill="#f0e8db" d="M242.95 185.683q-.88-.21-1.9-1.368.878.21 1.9 1.368"/><path fill="#f4dec1" d="M352.59 279.999c-.521 2.664-1.45 5.324-2.73 8.003-4.376-.228-8.399-.489-12.424-.716-2.406-.136-4.815-.22-7.223-.329l-.295-1.612c7.422-1.783 14.844-3.566 22.672-5.346"/><path fill="#f2e4d9" d="M311.632 311.994c-.28.311-.923.594-1.937.834.277-.316.925-.59 1.937-.834m-4.888 1.045c-.013.158-.271.263-.628.232.062-.186.222-.236.628-.232"/><path fill="#7c5e40" d="M317.246 281.614c.429-.44.642-.679.856-1.213.756-.94 1.437-1.65 2.59-2.326.64.145.807.257.974.369-1.362 1.694-2.723 3.388-4.378 4.822-.258-.636-.221-1.01-.042-1.652"/><path fill="#7c5e40" d="M320.94 277.91c.166-.104.556-.007.836.312-.277.11-.444-.002-.836-.313"/><path fill="#f7f5f3" d="M364.594 279.043c.398 2 .45 4.041.418 6.514-2.747-1.63-4.213-3.81-.418-6.514"/><path fill="#262d2e" d="M318.99 318.693c-1.286-.127-2.568-.565-3.922-1.357 1.05-.576 2.172-.798 3.63-.92.323.723.31 1.345.293 2.277m28.667-.397c-.607.238-1.578.348-2.607.157.709-.296 1.476-.29 2.607-.157"/><path fill="#273036" d="M330.598 319.14c1.486.053 2.622.182 3.758.311l-.623 1.571c-1.162-.602-2.323-1.205-3.135-1.882"/><path fill="#eee8db" d="M229.685 239.053c.77 2.468 1.195 4.994 1.691 7.505.317 1.605.404 3.378 1.175 4.749 2.966 5.272 2.655 10.686-.826 15.319-1.223 1.627-1.823 3.723-2.716 5.989-1.15-.151-2.291-.686-2.95-.995 1.963-5.087 3.886-9.834 5.56-14.667.25-.721-.661-1.845-1.342-2.854-.307-.072-.366.031-.366.031-.446-2.357-.643-4.805-1.456-7.028-.338-.921-1.92-1.56-3.066-1.969-1.363-.487-2.863-.589-4.304-.857l.15-1.542h6.612c.537-1.279 1.03-2.454 1.838-3.68m-50.63 32.684 13.818-1.133c1.243-4.873 2.506-5.44 7.15-3.292v6.43c-6.767 0-13.801 0-21.051-.334-.116-.78-.017-1.226.083-1.671m7.879-12.739c-3.883-.792-8.249 1.887-11.632-3.39h21.103c-1.8 3.388-1.8 3.388-9.47 3.39"/><path fill="#837e74" d="M205.93 262.903c-11.999-.019-23.998-.037-36.623-.186-.68-.606-.733-1.08-.787-1.555 12.041.035 24.082.07 36.654.334.606.623.681 1.015.757 1.407"/><path fill="#5b574f" d="M233.574 286.261c.843.714 1.259 1.416 1.548 2.328-9.608-1.179-19.09-2.567-28.967-4.124.017-.594.43-1.018.845-1.442a5961 5961 0 0 0 26.574 3.238"/><path fill="#eee8db" d="M208.103 244.556c2.412.539 4.45.93 6.487 1.319-2.116 4.21-6.558 4.303-17.022-.883 3.386-.195 6.773-.39 10.535-.436m-1.091 38.088c-.426.803-.84 1.227-1.264 1.876-.77.123-1.53.022-2.584-.634-.288-.907-.282-1.26-.275-1.613-1.354-.758-2.638-1.72-4.082-2.217-1.488-.511-3.131-.57-4.707-.826l.206-1.87h14.754c-.85 2.047-1.443 3.476-2.048 5.284m-46.595-23.661c-3.986.344-7.576.819-11.176.917-1.015.028-2.928-1.059-2.918-1.609.022-1.313.633-2.998 1.61-3.783.69-.555 3.109-.32 3.478.312 1.865 3.184 4.326 2.012 6.929 1.652 1.24-.17 2.626.717 3.946 1.125-.492.458-.984.916-1.87 1.386"/><path fill="#837e74" d="M202.428 282.293c.454.333.448.686.48 1.3-7.907.316-15.85.422-23.794.385-1.769-.008-3.535-.52-5.925-.99-.98-.413-1.337-.635-1.694-.857 10.158.06 20.315.12 30.933.162"/><path fill="#eee8db" d="M173.866 248h-14.259l-.085-2.3c6.158-1.485 12.501-.397 18.749-.646l.403 1.648c-1.46.432-2.921.864-4.808 1.297"/><path fill="#837e74" d="M178.333 219.03c7.659-.01 14.86-.01 22.06-.01l-.01 1.413h-26.535l-.071-.868c1.366-.176 2.732-.352 4.556-.536"/><path fill="#47443e" d="M178.585 271.774c.37.41.27.855-.12 1.507-7.224.748-14.156 1.287-21.641 1.742-.508-.685-.463-1.286-.418-1.886 7.236-.442 14.473-.884 22.18-1.363m42.351 24.967-23.963-2.585.136-1.592c7.692.78 15.384 1.56 23.461 2.852.378.783.372 1.054.366 1.325"/><path fill="#eee8db" d="M192.315 252.939c-4.531-.143-8.643-.33-12.755-.518l.038-1.81h16.825c-1.79 1.107-2.74 1.695-4.108 2.328"/><path fill="#5b574f" d="M224.953 234.096c-7.737-.74-15.474-1.481-23.656-2.626-.346-.713-.31-1.028-.338-1.351 7.95 1.046 15.899 2.093 23.908 3.536.06.397.086.441.086.441"/><path fill="#47443e" d="m174.099 231.39-23.595 2.386-.094-1.687c7.573-.714 15.145-1.428 23.192-1.742.482.615.49.829.497 1.042m48.766 44.369-19.253-1.941.136-1.435c6.226.694 12.452 1.388 18.855 2.53.178.45.262.846.262.846m7.055-21.701c-1.045.558-2.089 1.612-3.022 1.523-4.403-.424-8.776-1.162-13.088-2.916 5.09.45 10.18.9 15.685 1.408.416.058.475-.045.424-.015"/><path fill="#eee8db" d="M220 264.415c2.031-.776 4.062-1.137 6.093-1.498l1.02 1.428-4.876 4.599c-.745-1.371-1.49-2.742-2.236-4.529"/><path fill="#5b574f" d="M221.276 296.866c-.333-.396-.327-.667-.308-1.344 4.78.445 9.549 1.298 14.671 2.318.4.502.35.822.144 1.364-1.093.117-2.126-.003-3.473-.087-3.773-.685-7.234-1.406-11.034-2.251"/><path fill="#232729" d="M174.56 231.427c-.469-.251-.476-.465-.508-.998 8.645-.357 17.313-.394 26.444-.37.49.383.455.698.374 1.246-8.604.212-17.226.186-26.31.122"/><path fill="#5b574f" d="M149.563 295.148c4.201-.274 8.008-.51 11.815-.746l.09 1.272-13.591 1.582-.292-.835c.528-.412 1.056-.824 1.978-1.273"/><path fill="#eee8db" d="M170.538 252.068c-.303.733-.964 1.841-1.62 1.838-2.5-.014-4.998-.385-7.498-.623l.241-2.348c2.84.333 5.681.666 8.877 1.133m.479 30.026c.835.26 1.193.481 1.767.787-2.314 3.836-5.404 1.94-8.355 1.453l-.23-1.775c2.114-.168 4.227-.335 6.818-.465m14.443-36.941c2.866-.106 5.38-.106 7.894-.106l-.356 2.43c-2.63-.739-5.26-1.478-7.537-2.324m-17.4 15.965c.513.519.566.993.78 1.663a20.3 20.3 0 0 1-4.604 1.865c-.184.048-.71-1.207-1.077-1.858 1.481-.572 2.962-1.143 4.901-1.67m37.662-9.811c1.753-.148 3.166-.148 4.578-.148l.363 1.712-5 1.012c-.095-.809-.189-1.618.059-2.576m-53.365 34.888c-2.528.882-5.119 1.712-5.401-3.602 2.436 1.448 3.968 2.36 5.401 3.602m3.138-3.06c1.634.233 2.915.547 4.196.862l-.463 1.552c-1.607-.054-4 2.216-3.733-2.414m63.993-41.101c-1.478.973-3.012 1.596-4.545 2.22l-.535-2.375c1.675-.065 3.35-.13 5.08.155m.43 21.606c-1.478.57-3.037.781-4.596.992l.152-2.494c1.454.38 2.909.761 4.444 1.502m-13.749-.46c-.315-.67-.39-1.061-.56-1.739 1.489-.285 3.073-.285 4.656-.285l.326 1.676c-1.394.208-2.788.416-4.421.347m-58.859 1.006c1.468-.354 2.854-.354 4.239-.354l-.398 2.22c-1.308-.505-2.617-1.009-3.841-1.866m6.004-10.998c.982-.56 1.916-1.008 2.77-.888.6.083 1.092.94 1.632 1.452l-.564 1.3c-1.307-.503-2.613-1.007-3.838-1.864m76.331 22.791c1.07 1.086 1.818 2.27 2.46 3.738-4.065-1.44-4.065-1.44-2.46-3.738m2.355-45.56c3.656.73 4.228 2.317.353 4.536-.351-1.342-.352-2.73-.353-4.536m-76.049 31.775c1.097.539 1.867 1.036 2.637 1.533l-.383 1.154-3.512-.999c.31-.576.62-1.152 1.258-1.688m.067 10.912c.34.632.296 1.233.48 2.058-1.004.435-2.234.645-3.465.855l-.51-1.191c1.036-.585 2.072-1.17 3.494-1.722m33.833-37.659c.988-.207 1.746-.207 2.504-.207l-.238 1.319c-.832-.302-1.665-.604-2.266-1.112m-41.738 41.316c-.441-.63-.6-1.19-.76-1.749l1.732.21c-.23.537-.46 1.074-.972 1.539m71.402-28.775c.556-.38 1.107-.473 1.658-.567l-.017 1.178c-.548-.108-1.097-.217-1.64-.611m3.517 28.03c-.17-.259-.253-.656-.16-.836.905.154 1.719.488 2.532.823l-.257.776c-.65-.168-1.298-.336-2.115-.763m-12.672-34.577c-.419-.109-.676-.374-.912-.656-.006-.007.206-.198.316-.303.254.267.507.534.596.96m-44.798-15.397c-.37.225-.736.222-1.101.194-.01-.001.002-.285.004-.437.366.004.733.009 1.097.243"/><path fill="#5b574f" d="M163.947 293.536c-.042-.047.257.012.257.012s-.215.036-.257-.012m60.955-59.484c-.024 0 .153.112.153.112s-.05-.191-.076-.13c-.026.062-.052.018-.077.018"/></svg>